<?xml version="1.0" standalone="no"?>
<!DOCTYPE svg PUBLIC "-//W3C//DTD SVG 1.1//EN" "http://www.w3.org/Graphics/SVG/1.1/DTD/svg11.dtd" >
<svg xmlns="http://www.w3.org/2000/svg">
<metadata></metadata>
<defs>
<font id="encode_sans_condensedthin" horiz-adv-x="702" >
<font-face units-per-em="2048" ascent="1638" descent="-410" />
<missing-glyph horiz-adv-x="446" />
<glyph horiz-adv-x="0" />
<glyph unicode="&#xd;" horiz-adv-x="577" />
<glyph horiz-adv-x="0" />
<glyph horiz-adv-x="0" />
<glyph unicode=" "  horiz-adv-x="446" />
<glyph unicode="&#x09;" horiz-adv-x="446" />
<glyph unicode="&#xa0;" horiz-adv-x="446" />
<glyph unicode="!" horiz-adv-x="417" d="M154 74q0 29 16 46t45 17t46.5 -17.5t17.5 -45.5q-1 -62 -64 -62q-29 0 -45 16.5t-16 45.5zM170 1495v21h74v-21l-11 -1161v-29h-51v29z" />
<glyph unicode="&#x22;" horiz-adv-x="604" d="M137 983v672h76v-8l-39 -664h-37zM412 983v672h75v-8l-38 -664h-37z" />
<glyph unicode="#" horiz-adv-x="993" d="M98 502v71h172l29 369h-201v72h207l41 502h74l-41 -502h250l41 502h71l-41 -502h195v-72h-201l-28 -369h227v-71h-234l-41 -502h-73l41 502h-248l-41 -502h-74l41 502h-166zM344 573h248l31 369h-250z" />
<glyph unicode="$" horiz-adv-x="991" d="M82 39l12 70q35 -12 83 -23.5t100.5 -20t104.5 -13.5t97 -5q172 0 266.5 82t94.5 236q0 70 -22.5 124t-67.5 97t-112 78.5t-155 70.5q-102 39 -173.5 80t-117 89t-64.5 105.5t-19 129.5q0 84 26.5 154.5t76.5 122.5t119.5 84t155.5 40v283h72v-279q68 -2 141.5 -12 t159.5 -27l-10 -73q-96 23 -172 32t-135 9q-80 0 -146.5 -24t-113.5 -68t-73 -105.5t-26 -136.5q0 -59 17.5 -106.5t56.5 -86.5t102.5 -73.5t155.5 -67.5q100 -39 175 -80t125 -91t74.5 -115.5t24.5 -153.5q0 -162 -90 -262.5t-252 -122.5v-287h-71v280h-25q-43 0 -96 5.5 t-106.5 14.5t-103.5 20.5t-89 25.5z" />
<glyph unicode="%" horiz-adv-x="1624" d="M82 1061q0 236 75.5 355.5t225.5 119.5t225.5 -120t75.5 -355q0 -236 -75.5 -356.5t-225.5 -120.5q-301 0 -301 477zM152 1061q0 -406 231 -406q115 0 172 102.5t57 303.5q0 199 -58 301t-171 102t-172 -102t-59 -301zM471 0l592 1516h76l-590 -1516h-78zM940 451 q0 236 77 355.5t226 119.5q150 0 225.5 -120t75.5 -355q0 -236 -75.5 -357t-225.5 -121q-303 0 -303 478zM1012 451q0 -406 231 -406q115 0 171 102.5t56 303.5q0 199 -58 301t-169 102q-113 0 -172 -102.5t-59 -300.5z" />
<glyph unicode="&#x26;" horiz-adv-x="1253" d="M102 422q0 279 232 399q-43 70 -61.5 146.5t-18.5 173.5q0 199 95 300t282 101q68 0 141.5 -19.5t167.5 -60.5v-12l-25 -51h-10q-86 39 -149.5 55t-122.5 16q-305 0 -305 -329q0 -86 21.5 -160t70.5 -141.5t127 -134t190 -136.5l254 -161q14 63 21.5 134.5t7.5 157.5v136 h74v-136q0 -193 -37 -333l149 -95v-12l-35 -47h-12l-125 78q-119 -316 -475 -316q-217 0 -337 118t-120 329zM176 422q0 -174 101.5 -274.5t281.5 -100.5q309 0 410 287l-277 176q-111 70 -186.5 130t-128.5 124q-104 -53 -152.5 -138t-48.5 -204z" />
<glyph unicode="'" horiz-adv-x="329" d="M137 983v672h76v-8l-39 -664h-37z" />
<glyph unicode="(" horiz-adv-x="524" d="M92 725q0 289 81 558t235 495h71v-9q-154 -221 -232.5 -486t-78.5 -558t79 -558t232 -486v-9h-71q-154 225 -235 494.5t-81 558.5z" />
<glyph unicode=")" horiz-adv-x="524" d="M47 -319q152 221 230.5 486t78.5 558t-78.5 558t-230.5 486v9h70q154 -225 234.5 -494.5t80.5 -558.5t-81 -558t-234 -495h-70v9z" />
<glyph unicode="*" horiz-adv-x="974" d="M94 1395l21 67l166 -51l190 -82l-18 209v172h71v-172l-20 -209l190 82l166 51l23 -67l-164 -52l-203 -45l137 -157l101 -142l-58 -41l-100 140l-109 182l-108 -182l-100 -140l-56 41l99 142l137 157l-201 45z" />
<glyph unicode="+" horiz-adv-x="952" d="M102 721v74h338v356h72v-356h338v-74h-338v-356h-72v356h-338z" />
<glyph unicode="," horiz-adv-x="372" d="M57 -297l97 424h82l-117 -444z" />
<glyph unicode="-" d="M131 537v73h440v-73h-440z" />
<glyph unicode="." horiz-adv-x="389" d="M129 63q0 31 18.5 49.5t47.5 18.5q31 0 49 -19.5t18 -48.5q0 -31 -18 -48t-49 -17q-29 0 -47.5 17.5t-18.5 47.5z" />
<glyph unicode="/" horiz-adv-x="600" d="M70 -248l385 1764h75l-387 -1764h-73z" />
<glyph unicode="0" horiz-adv-x="1128" d="M111 756q0 387 114.5 583.5t339.5 196.5q223 0 338 -196.5t115 -583.5q0 -385 -115 -580.5t-338 -195.5q-225 0 -339.5 194.5t-114.5 581.5zM186 756q0 -350 94.5 -527.5t284.5 -177.5q188 0 283.5 177.5t95.5 527.5q0 348 -96 527t-283 179q-186 0 -282.5 -179 t-96.5 -527z" />
<glyph unicode="1" horiz-adv-x="653" d="M49 1239v10l373 267h47v-1516h-74v1403h-6l-297 -211h-12z" />
<glyph unicode="2" horiz-adv-x="903" d="M92 2v178q0 90 19.5 168t60.5 148.5t107.5 137t162.5 134.5q76 55 129.5 105.5t87 98.5t48 98t14.5 108q0 139 -73 210.5t-214 71.5q-57 0 -124.5 -11t-159.5 -40l-19 72q88 29 162 41t143 12q178 0 268.5 -90t90.5 -266q0 -68 -15.5 -125.5t-52.5 -111.5t-95.5 -110.5 t-144.5 -119.5q-90 -68 -150.5 -128.5t-99 -123t-55 -130t-16.5 -149.5v-106h633v-72h-707z" />
<glyph unicode="3" horiz-adv-x="864" d="M102 1503q61 16 121 24.5t115 8.5q180 0 279.5 -101.5t99.5 -287.5q0 -139 -61.5 -231.5t-176.5 -127.5v-4q279 -68 279 -397q0 -193 -111.5 -298t-316.5 -105q-53 0 -109.5 6t-109.5 20v68h14q43 -10 97 -17.5t106 -7.5q168 0 262 88t94 248q0 174 -100.5 266.5 t-292.5 92.5h-62v71h62q166 0 259 87t93 241t-79 235.5t-230 81.5q-41 0 -91 -7t-110 -19h-18z" />
<glyph unicode="4" horiz-adv-x="1015" d="M49 428v8l510 1100h12l50 -20v-11l-480 -1032v-10h564v35l22 569h51v-604h180v-70h-180v-393h-73v393h-619z" />
<glyph unicode="5" horiz-adv-x="858" d="M104 6v68h19q59 -12 109.5 -19.5t97.5 -7.5q174 0 266 96.5t92 286.5q0 193 -103.5 277t-328.5 86h-117l-8 8l51 715h535v-74h-465l-43 -578q150 -2 256 -25.5t173 -74.5t97.5 -133t30.5 -201q0 -223 -112.5 -339t-323.5 -116q-109 0 -226 31z" />
<glyph unicode="6" horiz-adv-x="1042" d="M109 664q0 207 37.5 369.5t108.5 275t173 172t234 59.5q53 0 102 -8t108 -25v-75q-59 18 -108 26t-102 8q-106 0 -191.5 -49t-147 -141t-97.5 -225t-42 -301q82 76 178.5 118.5t190.5 42.5q92 0 167 -29.5t128 -86t81.5 -137t28.5 -185.5q0 -111 -29.5 -202t-82.5 -157.5 t-128 -102.5t-167 -36q-442 0 -442 689zM182 664q0 -313 91.5 -464t277.5 -151q76 0 137.5 31t104.5 86t66.5 134t23.5 175q0 174 -88 269.5t-246 95.5q-88 0 -187.5 -47.5t-179.5 -124.5v-4z" />
<glyph unicode="7" horiz-adv-x="768" d="M55 1507v9h647l21 -39v-60l-481 -1421l-19 -14l-53 18v23l487 1419h-591z" />
<glyph unicode="8" horiz-adv-x="1038" d="M106 379q0 86 22 152.5t58.5 116.5t83.5 85t99 60q-109 55 -165.5 141t-56.5 223q0 184 99.5 280.5t271.5 96.5q174 0 272.5 -95.5t98.5 -281.5q0 -84 -19.5 -147.5t-51.5 -111.5t-72.5 -82t-86.5 -54q133 -57 203 -146.5t70 -240.5q0 -180 -113 -280.5t-301 -100.5 q-186 0 -299 100.5t-113 284.5zM180 379q0 -147 93.5 -230t244.5 -83q154 0 247 82.5t93 226.5q0 80 -20.5 136t-61.5 98t-102.5 70.5t-145.5 53.5q-23 6 -43 12.5t-39 14.5q-55 -25 -103 -55.5t-85 -75.5t-57.5 -105.5t-20.5 -144.5zM221 1157q0 -76 21.5 -131t62.5 -97 t103.5 -73t142.5 -55l16 -6q49 18 94.5 47.5t79 72.5t54 102.5t20.5 139.5q0 150 -80 227.5t-217 77.5q-135 0 -216 -79t-81 -226z" />
<glyph unicode="9" horiz-adv-x="1044" d="M86 1042q0 111 29.5 202t83 157.5t128.5 102.5t167 36q442 0 442 -688q0 -207 -38 -370t-108.5 -275.5t-173 -172t-233.5 -59.5q-53 0 -102.5 8.5t-108.5 24.5v76q59 -18 108.5 -26.5t102.5 -8.5q106 0 191 49t146.5 141.5t97.5 225.5t42 301q-82 -76 -178 -119t-190 -43 q-92 0 -167 30t-128.5 86t-82 137t-28.5 185zM162 1040q0 -174 88 -269t246 -95q88 0 187 47t179 125v4q0 313 -91 463.5t-277 150.5q-76 0 -137.5 -30.5t-104.5 -86t-66.5 -134t-23.5 -175.5z" />
<glyph unicode=":" horiz-adv-x="397" d="M131 63q0 31 18.5 49.5t47.5 18.5q31 0 49 -19.5t18 -48.5q0 -31 -18 -48t-49 -17q-29 0 -47.5 17.5t-18.5 47.5zM131 1042q0 31 18.5 49.5t47.5 18.5q31 0 49 -19.5t18 -48.5q0 -31 -18 -48t-49 -17q-29 0 -47.5 17.5t-18.5 47.5z" />
<glyph unicode=";" horiz-adv-x="458" d="M109 -297l96 424h82l-117 -444zM174 1042q0 31 18.5 49.5t47.5 18.5q31 0 49 -19.5t18 -48.5q0 -31 -18 -48t-49 -17q-29 0 -47.5 17.5t-18.5 47.5z" />
<glyph unicode="&#x3c;" horiz-adv-x="980" d="M94 719v65l754 336v-80l-655 -290l649 -287v-80z" />
<glyph unicode="=" horiz-adv-x="1021" d="M137 481v72h748v-72h-748zM137 913v74h748v-74h-748z" />
<glyph unicode="&#x3e;" horiz-adv-x="980" d="M135 1040v80l752 -336v-65l-746 -336v80l647 287z" />
<glyph unicode="?" horiz-adv-x="821" d="M59 1479q66 27 143 44t154 17q70 0 139.5 -19.5t126 -65.5t92.5 -123t36 -193q0 -115 -40 -191t-101.5 -125t-133.5 -78.5t-135 -48.5v-381h-72l-2 441q59 16 131 39.5t133.5 66.5t103.5 109.5t42 167.5q0 94 -30 157.5t-76 101.5t-103 53t-115 15q-68 0 -134 -14 t-132 -37zM246 66q0 63 61 63q29 0 46.5 -17.5t17.5 -45.5q-1 -62 -64 -62q-61 0 -61 62z" />
<glyph unicode="@" horiz-adv-x="1648" d="M100 537q0 205 54.5 363.5t153 266t236.5 162.5t306 55q178 0 307 -53t212 -151.5t123 -238.5t40 -312q0 -240 -79 -380t-239 -140q-41 0 -75.5 8t-62 29.5t-45 58.5t-23.5 94h-11q-31 -47 -70.5 -81t-81.5 -55.5t-83 -31.5t-74 -10q-72 0 -121 28.5t-79.5 77.5 t-44 112.5t-13.5 133.5q0 117 33 215t94 170t148.5 113t193.5 41q109 0 268 -60l-73 -436q-8 -45 -14.5 -90t-6.5 -84q0 -72 31 -118t110 -46q123 0 183.5 121t60.5 330q0 158 -34.5 284.5t-108.5 216t-188.5 137.5t-276.5 48q-152 0 -275.5 -51.5t-213 -149.5 t-138.5 -243.5t-49 -333.5q0 -203 51 -344.5t137.5 -230.5t199 -129t237.5 -40q92 0 184 18.5t184 47.5l27 -68q-96 -31 -196.5 -50.5t-198.5 -19.5q-139 0 -265 44.5t-222.5 142.5t-154 252.5t-57.5 376.5zM502 473q0 -55 10 -106.5t31.5 -90t57.5 -62.5t87 -24 q43 0 95.5 17.5t100.5 57.5t86 104.5t54 158.5l61 377q-51 16 -98 26.5t-88 10.5q-92 0 -164.5 -36t-125 -98.5t-80 -148.5t-27.5 -186z" />
<glyph unicode="A" horiz-adv-x="1148" d="M20 0v12l504 1504h101l503 -1504v-12h-73l-170 508h-621l-170 -508h-74zM289 580h571l-209 622l-76 234h-4l-75 -234z" />
<glyph unicode="B" horiz-adv-x="1167" d="M178 10v1497q68 8 120 13.5t95 8.5t80 5t76 2q246 0 358.5 -96.5t112.5 -304.5q0 -147 -66.5 -241.5t-185.5 -117.5v-8q141 -23 222 -121t81 -258q0 -409 -493 -409q-45 0 -99.5 2t-108 6t-103.5 10t-89 12zM252 70q20 -4 57 -9.5t82 -8.5t94.5 -5t92.5 -2q211 2 313 86 t102 260q0 180 -103.5 260t-332.5 80h-305v-661zM252 805h303q106 0 180 17.5t120 56.5t67.5 102t21.5 154q0 172 -94 251.5t-301 79.5q-86 0 -155.5 -5t-141.5 -15v-641z" />
<glyph unicode="C" horiz-adv-x="1052" d="M106 756q0 205 36 352t113 241.5t196.5 138.5t285.5 44q51 0 114.5 -6t127.5 -17v-73q-47 10 -110.5 17t-123.5 7q-147 0 -253.5 -40t-175 -126t-100.5 -219t-32 -319q0 -360 133.5 -531.5t413.5 -171.5q18 0 49 2t66 5t69.5 8.5t63.5 9.5v-70q-53 -12 -114.5 -19 t-129.5 -7q-326 2 -477.5 189t-151.5 585z" />
<glyph unicode="D" horiz-adv-x="1245" d="M178 -12v1515q84 16 170 24.5t150 8.5q330 0 486.5 -190.5t156.5 -589.5q0 -406 -172 -597.5t-537 -191.5q-74 0 -139.5 5t-114.5 16zM252 55q55 -6 98 -9t90 -3q623 0 623 713q0 365 -138.5 535.5t-432.5 170.5q-53 0 -118 -5t-122 -15v-1387z" />
<glyph unicode="E" horiz-adv-x="1069" d="M178 0v1516h783v-74h-709v-635h649v-72h-649v-661h727v-74h-801z" />
<glyph unicode="F" horiz-adv-x="1001" d="M178 0v1516h752v-74h-678v-635h635v-74h-635v-733h-74z" />
<glyph unicode="G" horiz-adv-x="1173" d="M106 756q0 205 37 352t115 241.5t199 138.5t288 44q57 0 139.5 -9.5t159.5 -25.5v-74q-86 18 -155.5 27.5t-134.5 9.5q-150 0 -257.5 -40t-177 -126t-102.5 -219t-33 -319q0 -360 135.5 -531.5t419.5 -171.5q37 0 101.5 6.5t130.5 16.5v694h73v-754q-86 -16 -158.5 -25 t-142.5 -9q-330 2 -483.5 189t-153.5 585z" />
<glyph unicode="H" horiz-adv-x="1325" d="M178 0v1516h74v-705h821v705h74v-1516h-74v737h-821v-737h-74z" />
<glyph unicode="I" horiz-adv-x="430" d="M178 0v1516h74v-1516h-74z" />
<glyph unicode="J" horiz-adv-x="430" d="M10 -326q51 106 85 191.5t53.5 163t26.5 158.5t7 182v1147h74v-1147q0 -96 -11.5 -185.5t-34 -177.5t-58 -178t-86.5 -188z" />
<glyph unicode="K" horiz-adv-x="1161" d="M178 0v1516h74v-707h231l531 707h92l-512 -687l-49 -49v-10l53 -47l547 -723h-88l-559 735h-246v-735h-74z" />
<glyph unicode="L" horiz-adv-x="870" d="M178 0v1516h74v-1442h592v-74h-666z" />
<glyph unicode="M" horiz-adv-x="1644" d="M178 0v1516h92l457 -1139l90 -232h8l93 232l454 1139h94v-1516h-73v1356l-9 2l-110 -279l-408 -1018h-90l-405 1018l-111 279l-8 -2v-1356h-74z" />
<glyph unicode="N" horiz-adv-x="1392" d="M178 0v1516h82l768 -1213l105 -176l10 2v1387h71v-1516h-84l-763 1206l-107 180l-8 -2v-1384h-74z" />
<glyph unicode="O" horiz-adv-x="1292" d="M106 756q0 393 135.5 586.5t403.5 193.5t404.5 -194.5t136.5 -585.5q0 -387 -137.5 -581.5t-403.5 -194.5q-268 0 -403.5 193.5t-135.5 582.5zM180 756q0 -360 114.5 -531.5t350.5 -171.5t350.5 173t114.5 530q0 706 -464 706h-1q-233 0 -349 -174t-116 -532z" />
<glyph unicode="P" horiz-adv-x="1099" d="M178 0v1505q162 33 303 33q281 0 412 -122t131 -388q0 -268 -134 -390t-429 -122q-47 0 -98.5 2t-110.5 10v-528h-74zM252 604q47 -6 108.5 -11t118.5 -5q246 0 358.5 105.5t112.5 334.5q0 227 -110.5 332.5t-350.5 105.5q-113 0 -237 -22v-840z" />
<glyph unicode="Q" horiz-adv-x="1286" d="M102 756q0 780 539 780q268 0 403.5 -195.5t135.5 -584.5q0 -383 -136.5 -576.5t-404.5 -195.5v-9q98 -31 234.5 -53t300.5 -39l-5 -76q-291 39 -493.5 98.5t-330.5 164t-185.5 269.5t-57.5 417zM176 756q0 -360 114.5 -531.5t350.5 -171.5t350.5 173t114.5 530 q0 706 -464 706h-1q-236 0 -350.5 -174t-114.5 -532z" />
<glyph unicode="R" horiz-adv-x="1132" d="M178 0v1505q158 33 303 33q283 0 413 -114.5t130 -362.5q0 -186 -72.5 -297t-230.5 -154l323 -610h-81l-316 594q-84 -12 -184 -12q-98 0 -211 12v-594h-74zM252 672q51 -10 111.5 -14.5t115.5 -4.5q246 0 358.5 97.5t112.5 310.5q0 211 -110.5 308t-350.5 97 q-51 0 -111.5 -6t-125.5 -16v-772z" />
<glyph unicode="S" horiz-adv-x="991" d="M80 39l12 70q35 -12 83 -23.5t100.5 -20t104.5 -13.5t97 -5q172 0 266.5 82t94.5 236q0 70 -22.5 124t-68 97t-112 78.5t-154.5 70.5q-102 39 -173.5 80t-117 89t-65 105.5t-19.5 129.5q0 92 32 166.5t88.5 128t136 82t178.5 28.5q72 0 149.5 -10t167.5 -29l-10 -73 q-96 23 -172 32t-135 9q-80 0 -146.5 -24t-114 -68t-73 -105.5t-25.5 -136.5q0 -59 17.5 -106.5t56.5 -86.5t102.5 -73.5t155.5 -67.5q100 -39 175 -80t125 -91t74.5 -115.5t24.5 -153.5q0 -186 -115.5 -289t-322.5 -103q-43 0 -96 5.5t-106.5 14.5t-103.5 20.5t-89 25.5z " />
<glyph unicode="T" horiz-adv-x="1003" d="M27 1442v74h948v-74h-436v-1442h-74v1442h-438z" />
<glyph unicode="U" horiz-adv-x="1341" d="M164 600v916h74v-914q0 -145 25.5 -249.5t79.5 -171t135 -97.5t192 -31t191.5 31t135 97.5t80 171t25.5 249.5v914h76v-916q0 -164 -30 -281.5t-92.5 -193.5t-158.5 -110.5t-227 -34.5q-133 0 -228.5 34.5t-157 110.5t-91 193.5t-29.5 281.5z" />
<glyph unicode="V" horiz-adv-x="1173" d="M20 1516h76l400 -1168l86 -258h8l86 258l401 1168h76l-518 -1516h-96z" />
<glyph unicode="W" horiz-adv-x="1810" d="M43 1516h78l287 -1127l69 -295h10l76 295l305 1127h90l287 -1127l72 -295h8l76 295l305 1127h76l-412 -1516h-102l-301 1178l-52 221h-8l-57 -223l-320 -1176h-100z" />
<glyph unicode="X" horiz-adv-x="1155" d="M29 0l499 766l-489 750h88l430 -656l21 -39h4l20 39l426 656h86l-489 -756l501 -760h-90l-438 666l-20 41h-7l-18 -41l-434 -666h-90z" />
<glyph unicode="Y" horiz-adv-x="1073" d="M12 1516h80l385 -791l58 -135h4l57 135l385 791h80l-486 -1000v-516h-73v510z" />
<glyph unicode="Z" horiz-adv-x="983" d="M63 0v53l746 1381v8h-731v74h829v-52l-745 -1384v-8h756v-72h-855z" />
<glyph unicode="[" horiz-adv-x="569" d="M170 -328v2106h336v-72h-264v-1962h264v-72h-336z" />
<glyph unicode="\" horiz-adv-x="585" d="M70 1516h61l387 -1762h-63z" />
<glyph unicode="]" horiz-adv-x="569" d="M63 -256h265v1962h-265v72h338v-2106h-338v72z" />
<glyph unicode="^" horiz-adv-x="753" d="M96 985l260 631h41l260 -631h-59l-217 543h-8l-217 -543h-60z" />
<glyph unicode="_" horiz-adv-x="1021" d="M100 -123h822v-74h-822v74z" />
<glyph unicode="`" horiz-adv-x="436" d="M86 1640h82l151 -366l-55 -21z" />
<glyph unicode="a" horiz-adv-x="909" d="M78 260q0 154 94 236t297 98l225 18v156q0 150 -61.5 215.5t-202.5 65.5q-57 0 -125.5 -9.5t-144.5 -27.5l-10 73q168 35 292 35q324 0 324 -348v-772h-61l-13 135h-8q-86 -55 -172 -100t-178 -45q-123 0 -189.5 70.5t-66.5 199.5zM154 264q0 -201 194 -201q43 0 89 14.5 t91 37t87 49t79 49.5v332l-211 -19q-180 -16 -254.5 -76.5t-74.5 -185.5z" />
<glyph unicode="b" horiz-adv-x="1015" d="M150 18v1637h73v-666q53 66 134 100.5t175 34.5q190 0 289 -138t99 -419q0 -123 -27 -228.5t-84 -185t-147.5 -125.5t-217.5 -48q-70 0 -145.5 10t-148.5 28zM223 74q59 -10 118 -16.5t110 -6.5q190 0 290.5 129t100.5 387q0 485 -316 486q-53 0 -107 -16.5t-97 -44 t-71 -63.5t-28 -75v-780z" />
<glyph unicode="c" horiz-adv-x="802" d="M98 553q0 285 109.5 429t327.5 144q66 0 188 -24v-74q-51 14 -95 19.5t-89 5.5q-186 0 -274.5 -122t-88.5 -380q0 -256 87 -377t274 -121q39 0 83 6.5t103 18.5v-72q-41 -12 -93 -19t-95 -7q-436 0 -437 573z" />
<glyph unicode="d" horiz-adv-x="1017" d="M96 555q0 276 123 422.5t338 146.5q59 0 114.5 -5t121.5 -15v551h73v-1655h-63l-10 119h-9q-102 -137 -297 -137q-197 0 -294 139t-97 434zM174 553q0 -248 79.5 -374t233.5 -126q55 0 109.5 17.5t97.5 45t71 64.5t28 78v772q-68 10 -123.5 16.5t-112.5 6.5 q-184 0 -283.5 -126t-99.5 -374z" />
<glyph unicode="e" horiz-adv-x="931" d="M96 528q0 291 106.5 443.5t307.5 152.5q160 0 246 -119.5t86 -345.5q0 -47 -2 -78.5t-6 -60.5h-660q4 -227 94 -347t258 -120q66 0 128.5 15.5t136.5 50.5l10 -74q-61 -29 -134 -46t-145 -17q-205 0 -315.5 142t-110.5 404zM174 592h592q-4 244 -65.5 352.5t-190.5 108.5 q-154 0 -240 -119t-96 -342z" />
<glyph unicode="f" horiz-adv-x="546" d="M33 1038v68h184v80q0 131 15.5 218t55.5 140t107.5 78t173.5 35l2 -64q-88 -10 -142 -29.5t-85 -62.5t-42 -114.5t-11 -182.5v-98h229v-68h-229v-1038h-74v1038h-184z" />
<glyph unicode="g" horiz-adv-x="1015" d="M96 555q0 276 123 422.5t338 146.5q172 0 309 -39v-974q0 -154 -26.5 -261.5t-78.5 -174t-129 -96.5t-177 -30q-72 0 -139.5 12.5t-129.5 35.5l9 75q68 -25 131 -37t131 -12q82 0 144.5 23.5t104.5 78t64.5 140.5t24.5 211v43h-11q-51 -66 -125.5 -101.5t-171.5 -35.5 q-197 0 -294 139t-97 434zM174 553q0 -246 79.5 -373t233.5 -127q55 0 109.5 17.5t97.5 45t71 64.5t28 78v772q-72 10 -126.5 16.5t-109.5 6.5q-184 0 -283.5 -126t-99.5 -374z" />
<glyph unicode="h" horiz-adv-x="1011" d="M152 0v1655h73v-672h8q117 72 211.5 107.5t178.5 35.5q131 0 187 -65.5t56 -226.5v-834h-73v825q0 123 -42 175.5t-135 52.5q-84 0 -182 -36t-209 -106v-911h-73z" />
<glyph unicode="i" horiz-adv-x="380" d="M129 1454q0 63 61 64q63 0 64 -64q-1 -61 -64 -61q-61 0 -61 61zM154 0v1106h73v-1106h-73z" />
<glyph unicode="j" horiz-adv-x="376" d="M-10 -412q84 139 124 292t40 345v881h73v-916q0 -172 -47 -335.5t-137 -305.5zM127 1454q0 63 61 64q29 0 46.5 -17.5t17.5 -46.5t-17.5 -45t-46.5 -16q-61 0 -61 61z" />
<glyph unicode="k" horiz-adv-x="911" d="M152 0v1655h73v-1053h189l368 504h86l-379 -518l-26 -21v-4l29 -22l409 -541h-86l-405 532h-185v-532h-73z" />
<glyph unicode="l" horiz-adv-x="389" d="M158 0v1655h73v-1655h-73z" />
<glyph unicode="m" horiz-adv-x="1589" d="M152 0v1106h59l10 -123h6q211 143 365 143q98 0 151.5 -34.5t75.5 -112.5h8q111 76 202 111.5t171 35.5q133 0 188.5 -65.5t55.5 -226.5v-834h-74v825q0 123 -41 175.5t-133 52.5q-78 0 -168 -36t-192 -102v-915h-74v825q0 123 -42 175.5t-134 52.5q-80 0 -171 -36 t-190 -102v-915h-73z" />
<glyph unicode="n" horiz-adv-x="1011" d="M152 0v1106h63l8 -123h8q117 72 212.5 107.5t179.5 35.5q131 0 187 -65.5t56 -226.5v-834h-73v825q0 123 -42 175.5t-135 52.5q-84 0 -182 -36t-209 -106v-911h-73z" />
<glyph unicode="o" horiz-adv-x="1021" d="M96 553q0 281 106.5 427t309.5 146t308.5 -146t105.5 -427t-105.5 -426t-308.5 -145q-205 0 -310.5 145t-105.5 426zM174 553q0 -498 338 -498q336 0 336 498q0 502 -336 502q-338 0 -338 -502z" />
<glyph unicode="p" horiz-adv-x="1017" d="M152 -451v1557h63l10 -117h8q53 66 129 100.5t173 34.5q190 0 287.5 -138t97.5 -419q0 -121 -27 -227.5t-83 -186t-146.5 -126.5t-217.5 -47q-57 0 -113.5 6t-107.5 16v-453h-73zM225 74q59 -10 117 -16.5t111 -6.5q188 0 288.5 129t100.5 387q0 485 -314 486 q-55 0 -109 -16.5t-97 -45t-70 -65.5t-27 -76v-776z" />
<glyph unicode="q" horiz-adv-x="1015" d="M96 555q0 270 120 419.5t341 149.5q174 0 309 -39v-1536h-73v570q-113 -137 -306 -137q-199 0 -295 140t-96 433zM174 553q0 -244 79.5 -372t233.5 -128q55 0 110.5 17.5t98.5 46t70 65.5t27 76v772q-84 14 -136.5 18.5t-99.5 4.5q-186 0 -284.5 -129t-98.5 -371z" />
<glyph unicode="r" horiz-adv-x="630" d="M152 0v1106h63l8 -129h8q78 47 165 86t186 61h24v-86h-26q-104 -16 -192.5 -51t-162.5 -82v-905h-73z" />
<glyph unicode="s" horiz-adv-x="768" d="M86 18v76q74 -20 143.5 -31.5t126.5 -11.5q123 0 186.5 61.5t63.5 172.5q0 104 -54 160.5t-159 84.5q-53 14 -105 31t-93 49.5t-68 87t-27 142.5q0 135 87 214t235 79q25 0 46 -1.5t47 -5.5t57.5 -10t76.5 -16l-2 -76q-72 18 -125 26.5t-98 8.5q-117 0 -181.5 -56.5 t-64.5 -160.5q0 -63 18.5 -102.5t50.5 -65t75 -41t92 -29.5q68 -20 118 -47t84.5 -63.5t52 -88t17.5 -120.5q0 -145 -87 -226.5t-228 -81.5q-55 0 -116.5 9.5t-168.5 31.5z" />
<glyph unicode="t" horiz-adv-x="677" d="M29 1032v74h227l10 254l62 14v-268h323v-74h-323v-751q0 -219 194 -220q27 0 63 5.5t64 13.5v-74q-41 -8 -74.5 -12t-62.5 -4q-258 0 -258 286v756h-225z" />
<glyph unicode="u" horiz-adv-x="1009" d="M143 272v834h74v-825q0 -117 44 -172.5t138 -55.5q90 0 181.5 38t203.5 110v905h74v-1106h-63l-9 125h-8q-63 -37 -114.5 -64.5t-97.5 -46t-87 -26.5t-84 -8q-135 0 -193.5 68.5t-58.5 223.5z" />
<glyph unicode="v" horiz-adv-x="940" d="M39 1096v10h74l319 -932l35 -102h8l35 102l319 932h74v-10l-377 -1096h-112z" />
<glyph unicode="w" horiz-adv-x="1392" d="M51 1096v10h72l211 -825l39 -177h8l47 177l229 825h76l234 -825l47 -177h8l39 177l209 825h71v-10l-280 -1096h-84l-244 856l-33 127h-8l-33 -127l-239 -856h-86z" />
<glyph unicode="x" horiz-adv-x="940" d="M29 0v12l395 561l-371 521v12h80l285 -404l51 -75h6l51 75l281 404h82v-12l-371 -529l393 -553v-12h-80l-305 434l-55 78h-6l-53 -78l-301 -434h-82z" />
<glyph unicode="y" horiz-adv-x="948" d="M37 1098v8h76l323 -893l35 -115h6l35 115l330 893h73v-8l-567 -1549l-69 17v10l157 428z" />
<glyph unicode="z" horiz-adv-x="825" d="M68 0v49l563 979v8h-543v70h649v-45l-569 -983v-8h590v-70h-690z" />
<glyph unicode="{" horiz-adv-x="704" d="M53 702v64q78 0 122 60.5t44 170.5v559q0 63 10.5 106.5t35 69t65.5 36t102 10.5q20 0 52 -1t64 -3t56.5 -3.5t32.5 -3.5v-61h-229q-66 0 -90.5 -23.5t-24.5 -87.5v-610q0 -92 -33 -160.5t-90 -91.5q57 -23 90 -90.5t33 -157.5v-612q0 -63 24.5 -87t90.5 -24h229v-61 q-8 -2 -32.5 -4t-56.5 -3t-62.5 -2t-51.5 -1q-61 0 -103 10t-66.5 35.5t-35 68.5t-10.5 107v561q0 111 -44 170t-122 59z" />
<glyph unicode="|" horiz-adv-x="411" d="M170 -451v2106h72v-2106h-72z" />
<glyph unicode="}" d="M68 -238h229q66 0 90.5 24t24.5 87v612q0 90 32.5 158t87.5 90q-55 23 -87.5 91.5t-32.5 160.5v610q0 63 -25 87t-90 24h-229v61q6 2 31.5 3.5t56 3.5t62.5 3t52 1q61 0 102.5 -10.5t66 -36t34.5 -68.5t10 -107v-559q0 -111 45 -171t123 -60v-64q-78 0 -123 -59t-45 -170 v-561q0 -63 -10 -106.5t-34.5 -69t-65.5 -35.5t-103 -10q-20 0 -52 1t-62.5 2t-56 3t-31.5 4v61z" />
<glyph unicode="~" horiz-adv-x="1077" d="M135 596q41 47 75 79t64.5 51t60.5 27.5t64 8.5q49 0 85 -23.5t69 -53.5t66.5 -53.5t74.5 -23.5q27 0 54.5 10.5t52 29t45 42t31.5 49.5l65 -26q-16 -37 -44 -70t-60.5 -56.5t-68.5 -36.5t-73 -13q-55 0 -96 23.5t-74.5 53t-63.5 53t-63 23.5q-49 0 -96 -31.5 t-115 -109.5z" />
<glyph unicode="&#xa2;" horiz-adv-x="843" d="M100 553q0 262 93.5 405.5t279.5 163.5v232h72v-228q35 -2 78 -8t102 -16v-74q-51 14 -95 19.5t-89 5.5q-186 0 -274.5 -122t-88.5 -380q0 -256 87 -377t274 -121q39 0 83 6.5t103 18.5v-72q-41 -10 -90 -17t-90 -9v-224h-72v228q-373 37 -373 569z" />
<glyph unicode="&#xa3;" horiz-adv-x="1069" d="M96 0v74h250v639h-250v73h250v295q0 227 78 335t264 108q119 0 289 -60l-21 -67q-78 29 -145.5 41t-120.5 12q-147 0 -208.5 -85t-61.5 -284v-295h377v-73h-377v-639h528v-74h-852z" />
<glyph unicode="&#xa5;" horiz-adv-x="1153" d="M55 1516h80l385 -791l58 -135h4l57 135l385 791h80l-459 -943h297v-67h-324v-199h324v-67h-324v-240h-73v240h-342v67h342v199h-342v67h311z" />
<glyph unicode="&#xa8;" horiz-adv-x="790" d="M129 1380q0 29 16.5 44.5t42.5 15.5q25 0 42.5 -14.5t17.5 -45.5q0 -29 -17.5 -43t-42.5 -14q-27 0 -43 14.5t-16 42.5zM502 1380q0 29 17.5 44.5t43.5 15.5q23 0 40.5 -14.5t17.5 -45.5q0 -29 -17.5 -43t-40.5 -14q-27 0 -44 14.5t-17 42.5z" />
<glyph unicode="&#xa9;" horiz-adv-x="1726" d="M102 758q0 176 55.5 319.5t155 245.5t239.5 158.5t312 56.5t312.5 -56.5t240 -158.5t154.5 -245.5t55 -319.5t-55 -319.5t-154.5 -246t-240 -159t-312.5 -56.5t-312 56.5t-239.5 159t-155 246t-55.5 319.5zM174 758q0 -160 49 -291t140.5 -224t218 -143.5t282.5 -50.5 t283 50.5t217 143.5t140 224t50 291t-50 291t-140 224t-217 143t-283 50t-282.5 -50t-218 -143t-140.5 -224t-49 -291zM522 748q0 213 103.5 318t271.5 105q43 0 86 -5t84 -13v-74q-37 8 -80 13.5t-86 5.5q-139 0 -221 -86t-82 -264q0 -174 84 -258t217 -84q43 0 87 6t85 14 v-70q-84 -22 -174 -22q-168 0 -271.5 102.5t-103.5 311.5z" />
<glyph unicode="&#xab;" horiz-adv-x="913" d="M80 549v8l252 487h80l-250 -487v-8l250 -488h-80zM485 549v8l252 487h80l-250 -487v-8l250 -488h-80z" />
<glyph unicode="&#xad;" d="M131 537v73h440v-73h-440z" />
<glyph unicode="&#xae;" horiz-adv-x="1464" d="M102 911q0 135 47.5 251t131.5 201t199.5 132t250.5 47t251 -47t201 -132t132 -200.5t47 -251.5q0 -135 -47 -250.5t-132 -199.5t-201 -131t-251 -47t-250.5 47t-199.5 131t-131.5 199.5t-47.5 250.5zM174 911q0 -121 42 -223t116 -176t176 -116t223 -42t223.5 42 t177 116t116.5 176.5t42 222.5q0 121 -42 223.5t-116.5 177t-177 116.5t-223.5 42t-223 -42t-176 -116.5t-116 -177t-42 -223.5zM500 565v709q55 8 102 12t86 4q168 0 247 -54t79 -171q0 -80 -41 -133t-119 -76l-2 -8l190 -283h-88l-180 273l-203 4v-277h-71zM571 911 q23 -2 57.5 -3t69.5 -1q244 0 244 158q0 84 -57.5 120t-188.5 36q-29 0 -56.5 -3.5t-68.5 -7.5v-299z" />
<glyph unicode="&#xb4;" horiz-adv-x="419" d="M98 1262l154 372h78l-178 -385z" />
<glyph unicode="&#xb8;" horiz-adv-x="559" d="M59 -354q68 -25 125 -25q80 0 117 38t37 118q0 106 -74 235h80q35 -72 51.5 -130t16.5 -105q0 -111 -55 -169.5t-164 -58.5q-70 0 -134 23v74z" />
<glyph unicode="&#xbb;" horiz-adv-x="913" d="M94 61l250 488v8l-250 487h80l252 -487v-8l-252 -488h-80zM502 61l250 488v8l-250 487h80l252 -487v-8l-252 -488h-80z" />
<glyph unicode="&#xd3;" horiz-adv-x="1292" d="M106 756q0 393 135.5 586.5t403.5 193.5t404.5 -194.5t136.5 -585.5q0 -387 -137.5 -581.5t-403.5 -194.5q-268 0 -403.5 193.5t-135.5 582.5zM180 756q0 -360 114.5 -531.5t350.5 -171.5t350.5 173t114.5 530q0 707 -465 706q-233 0 -349 -174t-116 -532zM604 1624 l162 252h82l-176 -260z" />
<glyph unicode="&#xf3;" horiz-adv-x="1021" d="M96 553q0 281 106.5 427t309.5 146t308.5 -146t105.5 -427t-105.5 -426t-308.5 -145q-205 0 -310.5 145t-105.5 426zM174 553q0 -498 338 -498q336 0 336 498q0 502 -336 502q-338 0 -338 -502zM467 1262l154 372h77l-178 -385z" />
<glyph unicode="&#x104;" horiz-adv-x="1148" d="M20 0v12l504 1504h101l503 -1504v-53q-109 -55 -154.5 -111.5t-45.5 -130.5q0 -53 24.5 -75.5t77.5 -22.5t96 21v-66q-47 -25 -108 -25q-78 0 -120 43t-42 121q0 82 50 151.5t161 135.5h-12l-170 508h-621l-170 -508h-74zM289 580h571l-209 622l-76 234h-4l-75 -234z" />
<glyph unicode="&#x105;" horiz-adv-x="909" d="M78 260q0 154 94 236t297 98l225 18v156q0 150 -61.5 215.5t-202.5 65.5q-57 0 -125.5 -9.5t-144.5 -27.5l-10 73q168 35 292 35q324 0 324 -348v-813q-109 -55 -155 -111.5t-46 -130.5q0 -53 24.5 -75.5t78.5 -22.5q53 0 96 21v-66q-48 -25 -109 -25q-78 0 -119.5 43 t-41.5 121q0 82 50 151.5t161 135.5l-13 135h-8q-86 -55 -172 -100t-178 -45q-123 0 -189.5 70.5t-66.5 199.5zM154 266q-1 -203 194 -203q43 0 89 14.5t91 37t87 49t79 49.5v332l-211 -19q-180 -16 -254.5 -76.5t-74.5 -183.5z" />
<glyph unicode="&#x106;" horiz-adv-x="1052" d="M106 756q0 205 36 352t113 241.5t196.5 138.5t285.5 44q51 0 114.5 -6t127.5 -17v-73q-47 10 -110.5 17t-123.5 7q-147 0 -253.5 -40t-175 -126t-100.5 -219t-32 -319q0 -360 133.5 -531.5t413.5 -171.5q18 0 49 2t66 5t69.5 8.5t63.5 9.5v-70q-53 -12 -114.5 -19 t-129.5 -7q-326 2 -477.5 189t-151.5 585zM606 1624l162 252h82l-176 -260z" />
<glyph unicode="&#x107;" horiz-adv-x="802" d="M98 553q0 285 109.5 429t327.5 144q66 0 188 -24v-74q-51 14 -95 19.5t-89 5.5q-186 0 -274.5 -122t-88.5 -380q0 -256 87 -377t274 -121q39 0 83 6.5t103 18.5v-72q-41 -12 -93 -19t-95 -7q-436 0 -437 573zM434 1262l154 372h78l-179 -385z" />
<glyph unicode="&#x118;" horiz-adv-x="1069" d="M178 0v1516h783v-74h-709v-635h649v-72h-649v-661h727v-115q-109 -55 -155 -111.5t-46 -130.5q0 -53 24.5 -75.5t78.5 -22.5q53 0 96 21v-66q-47 -25 -109 -25q-78 0 -119.5 43t-41.5 121q0 82 50 151.5t161 135.5h-740z" />
<glyph unicode="&#x119;" horiz-adv-x="931" d="M96 528q0 291 106.5 443.5t307.5 152.5q160 0 246 -119.5t86 -345.5q0 -47 -2 -78.5t-6 -60.5h-660q4 -227 94 -347t258 -120q66 0 128.5 15.5t136.5 50.5l10 -74v-41q-109 -55 -155 -111.5t-46 -130.5q0 -53 24.5 -75.5t77.5 -22.5t97 21v-66q-47 -25 -109 -25 q-78 0 -120 43.5t-42 120.5q0 68 34 127.5t108 114.5q-74 -18 -148 -18q-205 0 -315.5 142t-110.5 404zM174 592h592q-4 244 -65.5 352.5t-190.5 108.5q-154 0 -240 -119t-96 -342z" />
<glyph unicode="&#x141;" horiz-adv-x="919" d="M29 453v96l198 170v797h74v-734l250 217v-96l-250 -217v-612h592v-74h-666v623z" />
<glyph unicode="&#x142;" horiz-adv-x="557" d="M49 504v71l180 158v922h74v-856l213 188v-74l-213 -188v-725h-74v662z" />
<glyph unicode="&#x143;" horiz-adv-x="1392" d="M178 0v1516h82l768 -1213l105 -176l10 2v1387h71v-1516h-84l-763 1206l-107 180l-8 -2v-1384h-74zM664 1624l161 252h82l-176 -260z" />
<glyph unicode="&#x144;" horiz-adv-x="1011" d="M152 0v1106h63l8 -123h8q117 72 212.5 107.5t179.5 35.5q131 0 187 -65.5t56 -226.5v-834h-73v825q0 123 -42 175.5t-135 52.5q-84 0 -182 -36t-209 -106v-911h-73zM492 1262l153 372h78l-178 -385z" />
<glyph unicode="&#x15a;" horiz-adv-x="991" d="M80 39l12 70q35 -12 83 -23.5t100.5 -20t104.5 -13.5t97 -5q172 0 266.5 82t94.5 236q0 70 -22.5 124t-68 97t-112 78.5t-154.5 70.5q-102 39 -173.5 80t-117 89t-65 105.5t-19.5 129.5q0 92 32 166.5t88.5 128t136 82t178.5 28.5q72 0 149.5 -10t167.5 -29l-10 -73 q-96 23 -172 32t-135 9q-80 0 -146.5 -24t-114 -68t-73 -105.5t-25.5 -136.5q0 -59 17.5 -106.5t56.5 -86.5t102.5 -73.5t155.5 -67.5q100 -39 175 -80t125 -91t74.5 -115.5t24.5 -153.5q0 -186 -115.5 -289t-322.5 -103q-43 0 -96 5.5t-106.5 14.5t-103.5 20.5t-89 25.5z M477 1624l162 252h82l-176 -260z" />
<glyph unicode="&#x15b;" horiz-adv-x="768" d="M86 18v76q74 -20 143.5 -31.5t126.5 -11.5q123 0 186.5 61.5t63.5 172.5q0 104 -54 160.5t-159 84.5q-53 14 -105 31t-93 49.5t-68 87t-27 142.5q0 135 87 214t235 79q25 0 46 -1.5t47 -5.5t57.5 -10t76.5 -16l-2 -76q-72 18 -125 26.5t-98 8.5q-117 0 -181.5 -56.5 t-64.5 -160.5q0 -63 18.5 -102.5t50.5 -65t75 -41t92 -29.5q68 -20 118 -47t84.5 -63.5t52 -88t17.5 -120.5q0 -145 -87 -226.5t-228 -81.5q-55 0 -116.5 9.5t-168.5 31.5zM358 1262l154 372h78l-178 -385z" />
<glyph unicode="&#x179;" horiz-adv-x="983" d="M63 0v53l746 1381v8h-731v74h829v-52l-745 -1384v-8h756v-72h-855zM465 1624l162 252h82l-177 -260z" />
<glyph unicode="&#x17a;" horiz-adv-x="825" d="M68 0v49l563 979v8h-543v70h649v-45l-569 -983v-8h590v-70h-690zM399 1262l154 372h78l-178 -385z" />
<glyph unicode="&#x17b;" horiz-adv-x="983" d="M63 0v53l746 1381v8h-731v74h829v-52l-745 -1384v-8h756v-72h-855zM442 1714q0 35 18.5 50.5t45.5 15.5t46 -15.5t19 -50.5t-19 -49t-46 -14t-45.5 15t-18.5 48z" />
<glyph unicode="&#x17c;" horiz-adv-x="825" d="M68 0v49l563 979v8h-543v70h649v-45l-569 -983v-8h590v-70h-690zM360 1380q0 35 18.5 50.5t45.5 15.5t46 -15.5t19 -50.5q0 -33 -19 -48t-46 -15t-45.5 15.5t-18.5 47.5z" />
<glyph unicode="&#x2c6;" horiz-adv-x="735" d="M92 1313v86l264 147l265 -147v-86l-265 147z" />
<glyph unicode="&#x2da;" horiz-adv-x="636" d="M117 1466q0 88 52 148.5t146 60.5q92 0 144.5 -60.5t52.5 -148.5q0 -86 -52.5 -146t-144.5 -60t-145 60t-53 146zM188 1466q0 -59 33 -98t94 -39q59 0 92 39t33 98t-32.5 99.5t-92.5 40.5q-61 0 -94 -40t-33 -100z" />
<glyph unicode="&#x2dc;" horiz-adv-x="864" d="M88 1366q35 41 86 71.5t102 30.5q41 0 75 -14t64.5 -30.5t60.5 -31t67 -14.5t70.5 22.5t58.5 59.5l55 -43q-29 -47 -81 -77.5t-105 -30.5q-39 0 -73 13t-64.5 30.5t-61.5 31t-66 13.5q-37 0 -73.5 -22.5t-65.5 -57.5z" />
<glyph unicode="&#x2000;" horiz-adv-x="938" />
<glyph unicode="&#x2001;" horiz-adv-x="1876" />
<glyph unicode="&#x2002;" horiz-adv-x="938" />
<glyph unicode="&#x2003;" horiz-adv-x="1876" />
<glyph unicode="&#x2004;" horiz-adv-x="625" />
<glyph unicode="&#x2005;" horiz-adv-x="469" />
<glyph unicode="&#x2006;" horiz-adv-x="312" />
<glyph unicode="&#x2007;" horiz-adv-x="312" />
<glyph unicode="&#x2008;" horiz-adv-x="234" />
<glyph unicode="&#x2009;" horiz-adv-x="375" />
<glyph unicode="&#x200a;" horiz-adv-x="104" />
<glyph unicode="&#x2010;" d="M131 537v73h440v-73h-440z" />
<glyph unicode="&#x2011;" d="M131 537v73h440v-73h-440z" />
<glyph unicode="&#x2012;" d="M131 537v73h440v-73h-440z" />
<glyph unicode="&#x2013;" horiz-adv-x="1038" d="M145 537v73h748v-73h-748z" />
<glyph unicode="&#x2014;" horiz-adv-x="1388" d="M145 537v73h1098v-73h-1098z" />
<glyph unicode="&#x2018;" horiz-adv-x="346" d="M115 1294q0 96 25.5 196.5t66.5 170.5l43 -16q-31 -80 -49.5 -173.5t-18.5 -175.5q0 -90 33 -190l-72 -21q-29 84 -28 209z" />
<glyph unicode="&#x2019;" horiz-adv-x="346" d="M102 1102q31 78 49.5 171t18.5 175q0 92 -33 192l72 21q29 -84 29 -211q0 -94 -26 -194.5t-67 -170.5z" />
<glyph unicode="&#x201a;" horiz-adv-x="356" d="M78 -246q31 78 49 171t18 175q0 92 -32 193l71 20q29 -84 29 -211q0 -94 -25.5 -194.5t-66.5 -169.5z" />
<glyph unicode="&#x201c;" horiz-adv-x="735" d="M115 1294q0 96 25.5 196.5t66.5 170.5l43 -16q-31 -80 -49.5 -173.5t-18.5 -175.5q0 -90 33 -190l-72 -21q-29 84 -28 209zM504 1294q0 96 25.5 196.5t66.5 170.5l43 -16q-31 -80 -49.5 -173.5t-18.5 -175.5q0 -90 33 -190l-72 -21q-29 84 -28 209z" />
<glyph unicode="&#x201d;" horiz-adv-x="735" d="M102 1102q31 78 49.5 171t18.5 175q0 92 -33 192l72 21q29 -84 29 -211q0 -94 -26 -194.5t-67 -170.5zM492 1102q31 78 49 171t18 175q0 92 -33 192l72 21q29 -84 29 -211q0 -94 -26 -194.5t-66 -170.5z" />
<glyph unicode="&#x201e;" horiz-adv-x="745" d="M78 -246q31 78 49 171t18 175q0 92 -32 193l71 20q29 -84 29 -211q0 -94 -25.5 -194.5t-66.5 -169.5zM467 -246q31 78 49.5 171t18.5 175q0 92 -33 193l71 20q29 -84 29 -211q0 -94 -25.5 -194.5t-66.5 -169.5z" />
<glyph unicode="&#x2026;" horiz-adv-x="1116" d="M129 63q0 31 18.5 49.5t47.5 18.5q31 0 49 -19.5t18 -48.5q0 -31 -18 -48t-49 -17q-29 0 -47.5 17.5t-18.5 47.5zM502 63q0 31 18.5 49.5t46.5 18.5q31 0 49.5 -19.5t18.5 -48.5q0 -31 -18.5 -48t-49.5 -17q-29 0 -47 17.5t-18 47.5zM854 63q0 31 18.5 49.5t47.5 18.5 q31 0 49 -19.5t18 -48.5q0 -31 -18 -48t-49 -17q-29 0 -47.5 17.5t-18.5 47.5z" />
<glyph unicode="&#x202f;" horiz-adv-x="375" />
<glyph unicode="&#x2039;" horiz-adv-x="505" d="M80 549v8l252 487h80l-250 -487v-8l250 -488h-80z" />
<glyph unicode="&#x203a;" horiz-adv-x="505" d="M94 61l250 488v8l-250 487h80l252 -487v-8l-252 -488h-80z" />
<glyph unicode="&#x205f;" horiz-adv-x="469" />
<glyph unicode="&#x20ac;" horiz-adv-x="1060" d="M90 551v70h160q-4 33 -4 66.5v68.5v69.5t4 67.5h-160v70h164q16 154 59 261t118 175.5t181.5 100.5t249.5 32q41 0 64.5 -1t54.5 -3l-35 -72q-14 2 -30.5 3t-45.5 1q-127 0 -221 -27.5t-159.5 -88t-103.5 -154.5t-52 -227h487l-39 -70h-454q-2 -33 -3 -67.5t-1 -69.5 q0 -37 1 -70t3 -65h424l-39 -70h-379q33 -258 158.5 -378t367.5 -120q12 0 36 1t52 3v-75q-16 -2 -33.5 -2h-48.5q-281 4 -429 139t-181 432h-166z" />
<glyph unicode="&#x2122;" horiz-adv-x="1607" d="M63 1444v72h551v-72h-239v-789h-72v789h-240zM725 655v861h78l289 -728l290 728h78v-861h-71v686l-261 -651h-71l-260 649v-684h-72z" />
<glyph unicode="&#x25fc;" horiz-adv-x="1105" d="M0 0v1106h1106v-1106h-1106z" />
</font>
</defs>
</svg>
